<svg width="1920" height="1129" viewBox="0 0 1920 1129" fill="none" xmlns="http://www.w3.org/2000/svg">
<g opacity="0.6" filter="url(#filter0_f_1646_14553)">
<path d="M-357.237 77.8433C-371.121 318.01 -371.26 566.61 -174.395 718.606C-9.27046 846.095 235.419 747.32 352.387 623.499C448.659 521.587 392.916 423.876 467.5 298.499C596.313 81.9616 854.437 383.438 934.875 128.796C1002.87 -86.4627 945.675 -333.93 764.395 -518.54C548.798 -738.098 317.761 -676.12 99.2015 -581.255C-162.271 -467.763 -337.327 -266.573 -357.237 77.8433Z" fill="url(#paint0_linear_1646_14553)"/>
</g>
<g filter="url(#filter1_f_1646_14553)">
<ellipse cx="10.197" cy="125.912" rx="339" ry="247.977" transform="rotate(135.127 10.197 125.912)" fill="#9AEC6C" fill-opacity="0.57"/>
</g>
<g opacity="0.3" filter="url(#filter2_f_1646_14553)">
<path d="M2114.19 725.47C2186.3 629.438 2253.61 526.978 2193.24 422.057C2142.6 334.052 2054.82 302.679 1961.04 328.618C1883.85 349.967 1884 441.065 1811.64 476.744C1686.68 538.364 1572.26 339.387 1461.93 427.1C1368.67 501.248 1331.22 615.548 1374.74 730.57C1426.49 867.366 1562.35 891.409 1700.66 899.215C1866.14 908.554 2010.78 863.187 2114.19 725.47Z" fill="url(#paint1_linear_1646_14553)"/>
</g>
<g opacity="0.2" filter="url(#filter3_f_1646_14553)">
<path d="M1577.9 427.304C1690.63 467.801 1809.86 503.545 1917.73 439.947C2008.21 386.602 2032.8 313.547 1994.18 245.024C1962.39 188.626 1992.73 152.353 1945.83 101.997C1864.84 15.0272 1939.67 -54.5472 1831.81 -125.998C1740.63 -186.398 1611.77 -197.102 1491.02 -144.948C1347.41 -82.9198 1336.11 26.2174 1342.8 134.662C1350.8 264.399 1416.22 369.229 1577.9 427.304Z" fill="#0AF7FA"/>
</g>
<defs>
<filter id="filter0_f_1646_14553" x="-712.469" y="-1017.81" width="2025.06" height="2145.94" filterUnits="userSpaceOnUse" color-interpolation-filters="sRGB">
<feFlood flood-opacity="0" result="BackgroundImageFix"/>
<feBlend mode="normal" in="SourceGraphic" in2="BackgroundImageFix" result="shape"/>
<feGaussianBlur stdDeviation="175" result="effect1_foregroundBlur_1646_14553"/>
</filter>
<filter id="filter1_f_1646_14553" x="-587.02" y="-470.904" width="1194.43" height="1193.63" filterUnits="userSpaceOnUse" color-interpolation-filters="sRGB">
<feFlood flood-opacity="0" result="BackgroundImageFix"/>
<feBlend mode="normal" in="SourceGraphic" in2="BackgroundImageFix" result="shape"/>
<feGaussianBlur stdDeviation="150" result="effect1_foregroundBlur_1646_14553"/>
</filter>
<filter id="filter2_f_1646_14553" x="1136.68" y="99.8052" width="1299.96" height="1020.58" filterUnits="userSpaceOnUse" color-interpolation-filters="sRGB">
<feFlood flood-opacity="0" result="BackgroundImageFix"/>
<feBlend mode="normal" in="SourceGraphic" in2="BackgroundImageFix" result="shape"/>
<feGaussianBlur stdDeviation="110" result="effect1_foregroundBlur_1646_14553"/>
</filter>
<filter id="filter3_f_1646_14553" x="1121.36" y="-398.409" width="1110.45" height="1093.05" filterUnits="userSpaceOnUse" color-interpolation-filters="sRGB">
<feFlood flood-opacity="0" result="BackgroundImageFix"/>
<feBlend mode="normal" in="SourceGraphic" in2="BackgroundImageFix" result="shape"/>
<feGaussianBlur stdDeviation="110" result="effect1_foregroundBlur_1646_14553"/>
</filter>
<linearGradient id="paint0_linear_1646_14553" x1="-36.1466" y1="-512.872" x2="532.118" y2="555.878" gradientUnits="userSpaceOnUse">
<stop stop-color="#8A2DE7"/>
<stop offset="1" stop-color="#5659FE"/>
</linearGradient>
<linearGradient id="paint1_linear_1646_14553" x1="1788.92" y1="900.077" x2="1784.93" y2="321.445" gradientUnits="userSpaceOnUse">
<stop stop-color="#8A2DE7"/>
<stop offset="1" stop-color="#5659FE"/>
</linearGradient>
</defs>
</svg>
