<svg width="402" height="282" viewBox="0 0 402 282" fill="none" xmlns="http://www.w3.org/2000/svg">
<path d="M389.273 181.044L401 183.656L401 115.269L389.055 118.646C387.332 119.133 386.143 120.705 386.143 122.495L386.143 177.14C386.143 179.014 387.444 180.637 389.273 181.044Z" fill="url(#paint0_linear_2622_84270)"/>
<path d="M401 183.656L401 277C401 279.209 399.209 281 397 281H299.079C298.463 281 297.856 280.858 297.304 280.585L287.857 275.909M401 183.656L389.273 181.044C387.444 180.637 386.143 179.014 386.143 177.14L386.143 122.495C386.143 120.705 387.332 119.133 389.055 118.646L401 115.269M401 183.656L401 115.269M401 115.269V5C401 2.79086 399.209 1 397 1H5C2.79086 1 1 2.79086 1 5V244.747C1 246.355 1.96252 247.807 3.4435 248.432L79.7959 280.685C80.2884 280.893 80.8177 281 81.3524 281H115.444C116.091 281 116.728 280.843 117.301 280.543L126.143 275.909" stroke="url(#paint1_linear_2622_84270)" stroke-width="2"/>
<path d="M13 9H389C391.209 9 393 10.7909 393 13V269C393 271.209 391.209 273 389 273H86.1573C85.6313 273 85.1104 272.896 84.6245 272.695L47.1803 257.16L11.4672 242.344C9.97359 241.724 9 240.266 9 238.649V13C9 10.7909 10.7909 9 13 9Z" stroke="url(#paint2_linear_2622_84270)"/>
<path d="M115.892 269.771C112.768 272.054 114.383 277 118.252 277H294.943C298.685 277 300.378 272.32 297.502 269.926L278.283 253.926C277.564 253.328 276.659 253 275.724 253H140.144C139.295 253 138.469 253.27 137.784 253.771L115.892 269.771Z" fill="url(#paint3_linear_2622_84270)"/>
<defs>
<linearGradient id="paint0_linear_2622_84270" x1="83" y1="-20" x2="369.268" y2="463.634" gradientUnits="userSpaceOnUse">
<stop stop-color="#AAF97E"/>
<stop offset="1" stop-color="#9AEC6C"/>
</linearGradient>
<linearGradient id="paint1_linear_2622_84270" x1="83" y1="-20" x2="369.268" y2="463.634" gradientUnits="userSpaceOnUse">
<stop stop-color="#AAF97E"/>
<stop offset="1" stop-color="#9AEC6C"/>
</linearGradient>
<linearGradient id="paint2_linear_2622_84270" x1="87.72" y1="-10.8" x2="355.268" y2="449.424" gradientUnits="userSpaceOnUse">
<stop stop-color="#AAF97E"/>
<stop offset="1" stop-color="#9AEC6C"/>
</linearGradient>
<linearGradient id="paint3_linear_2622_84270" x1="147" y1="251.2" x2="152.622" y2="306.608" gradientUnits="userSpaceOnUse">
<stop stop-color="#AAF97E"/>
<stop offset="1" stop-color="#9AEC6C"/>
</linearGradient>
</defs>
</svg>
