<svg width="32" height="32" viewBox="0 0 32 32" fill="none" xmlns="http://www.w3.org/2000/svg">
<path fill-rule="evenodd" clip-rule="evenodd" d="M3.6346 3.6346C4.48074 2.78847 5.8526 2.78847 6.69873 3.6346L16 12.9359L25.3013 3.6346C26.1474 2.78847 27.5193 2.78847 28.3654 3.6346C29.2115 4.48074 29.2115 5.8526 28.3654 6.69873L19.0641 16L28.3654 25.3013C29.2115 26.1474 29.2115 27.5193 28.3654 28.3654C27.5193 29.2115 26.1474 29.2115 25.3013 28.3654L16 19.0641L6.69873 28.3654C5.8526 29.2115 4.48074 29.2115 3.6346 28.3654C2.78847 27.5193 2.78847 26.1474 3.6346 25.3013L12.9359 16L3.6346 6.69873C2.78847 5.8526 2.78847 4.48074 3.6346 3.6346Z" fill="#FDFAFF"/>
</svg>
