<svg width="71" height="72" viewBox="0 0 71 72" fill="none" xmlns="http://www.w3.org/2000/svg">
<path d="M0 0H56C64.8366 0 72 7.16344 72 16V56C72 64.8366 64.8366 72 56 72H0V0Z" fill="#282828"/>
<path fill-rule="evenodd" clip-rule="evenodd" d="M23.6346 23.6346C24.4807 22.7885 25.8526 22.7885 26.6987 23.6346L36 32.9359L45.3013 23.6346C46.1474 22.7885 47.5193 22.7885 48.3654 23.6346C49.2115 24.4807 49.2115 25.8526 48.3654 26.6987L39.0641 36L48.3654 45.3013C49.2115 46.1474 49.2115 47.5193 48.3654 48.3654C47.5193 49.2115 46.1474 49.2115 45.3013 48.3654L36 39.0641L26.6987 48.3654C25.8526 49.2115 24.4807 49.2115 23.6346 48.3654C22.7885 47.5193 22.7885 46.1474 23.6346 45.3013L32.9359 36L23.6346 26.6987C22.7885 25.8526 22.7885 24.4807 23.6346 23.6346Z" fill="#FDFAFF"/>
</svg>
