<svg width="32" height="32" viewBox="0 0 32 32" fill="none" xmlns="http://www.w3.org/2000/svg">
<mask id="mask0_2514_17130" style="mask-type:luminance" maskUnits="userSpaceOnUse" x="0" y="0" width="32" height="32">
<path d="M0 0H32V32H0V0Z" fill="white"/>
</mask>
<g mask="url(#mask0_2514_17130)">
<path d="M3.94652 20.7393C1.35116 18.0525 1.35116 13.7019 3.94652 11.0151C6.54189 8.3283 10.7444 8.3283 13.3398 11.0151L14.5576 12.2758L5.16435 22L3.94652 20.7393ZM28.0535 20.7393C30.6488 18.0525 30.6488 13.7019 28.0535 11.0151C25.4681 8.3283 21.2556 8.3283 18.6603 11.0151L17.4424 12.2758L26.8357 22L28.0535 20.7393Z" fill="#F9C23C"/>
<path d="M11.7688 18.8317C9.22641 21.4009 6.35154 22.6559 5.34436 21.6479C4.34696 20.6301 5.58883 17.7249 8.13122 15.1557C10.6736 12.5865 13.5583 11.3415 14.5557 12.3494C15.5531 13.3573 14.3112 16.2625 11.7688 18.8317ZM20.2369 18.8317C22.7793 21.4009 25.6444 22.6657 26.6516 21.6479C27.6588 20.6301 26.4071 17.7348 23.8647 15.1656C21.3223 12.5964 18.4475 11.3415 17.4501 12.3494C16.4527 13.3573 17.6945 16.2625 20.2369 18.8317Z" fill="#6D4534"/>
<path d="M12.3743 21.6894C12.3743 21.8722 12.3004 22.0476 12.1689 22.1769C12.0374 22.3062 11.8591 22.3788 11.6731 22.3788C11.4871 22.3788 11.3087 22.3062 11.1772 22.1769C11.0457 22.0476 10.9719 21.8722 10.9719 21.6894C10.9719 21.5066 11.0457 21.3312 11.1772 21.2019C11.3087 21.0726 11.4871 21 11.6731 21C11.8591 21 12.0374 21.0726 12.1689 21.2019C12.3004 21.3312 12.3743 21.5066 12.3743 21.6894ZM8.70123 28.1941C8.88721 28.1941 9.06558 28.1214 9.19708 27.9922C9.32859 27.8629 9.40247 27.6875 9.40247 27.5047C9.40247 27.3218 9.32859 27.1465 9.19708 27.0172C9.06558 26.8879 8.88721 26.8153 8.70123 26.8153C8.51526 26.8153 8.33689 26.8879 8.20539 27.0172C8.07388 27.1465 8 27.3218 8 27.5047C8 27.6875 8.07388 27.8629 8.20539 27.9922C8.33689 28.1214 8.51526 28.1941 8.70123 28.1941ZM23.0123 29C23.2743 29 23.5255 28.8977 23.7107 28.7156C23.8959 28.5335 24 28.2865 24 28.029C24 27.7715 23.8959 27.5245 23.7107 27.3424C23.5255 27.1603 23.2743 27.058 23.0123 27.058C22.7504 27.058 22.4992 27.1603 22.314 27.3424C22.1287 27.5245 22.0247 27.7715 22.0247 28.029C22.0247 28.2865 22.1287 28.5335 22.314 28.7156C22.4992 28.8977 22.7504 29 23.0123 29Z" fill="#F9C23C"/>
<path d="M22.5426 15.0473C22.631 15.0804 22.7117 15.1307 22.7801 15.1953C22.8486 15.2598 22.9033 15.3373 22.941 15.4231C22.9788 15.509 22.9988 15.6014 22.9999 15.6951C23.0011 15.7887 22.9833 15.8817 22.9477 15.9684C22.5229 17.056 21.2781 18.516 21.1002 18.712C20.7189 19.1745 20.2802 19.5713 19.7813 19.9045C19.6172 20.4928 19.3623 21.0524 19.0255 21.5634C18.8082 21.8868 18.3636 21.9847 18.0376 21.7692C17.8798 21.6659 17.7695 21.5051 17.7306 21.3216C17.6918 21.1381 17.7275 20.9468 17.8301 20.7893C17.8854 20.706 17.9368 20.6198 17.9862 20.5336C17.5522 20.5103 17.1372 20.3492 16.8026 20.074C16.4155 19.7787 16.1596 19.3454 16.0895 18.866C16.0194 18.3866 16.1406 17.899 16.4272 17.5068C17.0398 16.6739 18.2154 16.4877 19.0552 17.0952L19.0749 17.1148C19.4066 17.3396 19.663 17.6576 19.811 18.0281C19.8801 17.9546 19.9483 17.8791 20.0135 17.8007C20.0135 17.7958 20.0164 17.7929 20.0184 17.7909C20.0204 17.789 20.0234 17.786 20.0234 17.7811C20.3691 17.3892 21.3373 16.1938 21.6238 15.4491C21.6922 15.2752 21.8274 15.1352 21.9996 15.06C22.1718 14.9847 22.3671 14.9801 22.5426 15.0473ZM18.5217 19.004C18.579 18.5395 18.4189 18.3749 18.2451 18.2515L18.2253 18.2319C18.1531 18.1771 18.066 18.1451 17.9753 18.1401C17.8846 18.1351 17.7945 18.1573 17.7167 18.2039C17.6388 18.2504 17.577 18.3191 17.539 18.4009C17.5011 18.4828 17.4889 18.5742 17.5041 18.663C17.5238 18.7806 17.5831 18.8884 17.6819 18.957C17.7017 18.9717 17.7204 18.9864 17.7372 19.003C17.9052 19.1206 18.1156 19.1931 18.5217 19.004ZM15.7406 30C16.2889 30 16.7335 29.561 16.7335 29.0201C16.7335 28.4793 16.2889 28.0403 15.7406 28.0403C15.1923 28.0403 14.7477 28.4793 14.7477 29.0201C14.7477 29.561 15.1923 30 15.7406 30ZM4.2952 26.5509C5.08426 25.8826 5.73162 25.0656 6.19971 24.1472C6.6678 23.2288 6.94728 22.2273 7.02194 21.2008C7.13061 19.7703 6.84411 18.3788 6.2217 17.1344C6.5576 16.6641 6.96266 16.2036 7.39736 15.743C8.40507 17.4088 8.87929 19.3489 8.73109 21.3282C8.6385 22.5764 8.29748 23.7941 7.72772 24.9108C7.15796 26.0275 6.37076 27.0212 5.41158 27.8345C5.25351 27.9717 5.05592 28.0403 4.85833 28.0403C4.61134 28.0403 4.37423 27.9423 4.20628 27.7463C4.05899 27.5758 3.98567 27.3544 4.00233 27.1304C4.01898 26.9065 4.12426 26.6981 4.2952 26.5509Z" fill="#00A6ED"/>
<path d="M15.1674 22.2654C15.1074 22.7862 15.3873 23.2875 15.8671 23.5135C16.297 23.7199 16.4769 24.2211 16.267 24.6339C16.127 24.9484 15.8171 25.1253 15.4873 25.1253C15.3673 25.1253 15.2374 25.1057 15.1174 25.0467C14.5526 24.7866 14.086 24.3576 13.7843 23.8209C13.4826 23.2842 13.3614 22.6675 13.438 22.059L13.6779 20.1622C13.7279 19.8084 13.6179 19.4644 13.368 19.199C13.1181 18.9337 12.7982 18.8059 12.4184 18.8059L11.8786 18.8157C10.789 18.855 9.74936 18.2654 9.20956 17.312L8 15.1499C8.43984 14.7174 8.88968 14.344 9.32951 14L10.719 16.4865C10.9489 16.8894 11.3688 17.145 11.8386 17.1155L12.3884 17.1057C13.2281 17.086 14.0778 17.43 14.6576 18.059C15.2374 18.688 15.5073 19.5233 15.4073 20.3685L15.1674 22.2654ZM26.1334 27.4742C25.9035 27.4742 25.6735 27.3759 25.5036 27.199C22.8346 24.3686 22.9745 19.9558 25.7835 17.2826C26.1634 17.8231 26.4733 18.344 26.7032 18.8354C24.8638 20.8796 24.8439 24.0049 26.7731 26.0491C27.093 26.3931 27.073 26.9238 26.7232 27.2482C26.5532 27.3956 26.3433 27.4742 26.1334 27.4742ZM10.1692 29.8526C10.2992 29.9509 10.4591 30 10.619 30C10.859 30 11.0889 29.8919 11.2488 29.6855C12.5783 27.8771 12.8582 25.5774 11.9785 23.5233C11.899 23.3383 11.7479 23.1919 11.5586 23.1164C11.3693 23.0408 11.1572 23.0423 10.9689 23.1204C10.7823 23.2005 10.6349 23.3491 10.5584 23.5346C10.4818 23.7201 10.482 23.9277 10.5591 24.113C10.8839 24.8741 11.0031 25.7048 10.905 26.5245C10.8069 27.3442 10.4949 28.125 9.99927 28.7912C9.74936 29.1351 9.82933 29.6069 10.1692 29.8526ZM19.4558 25.4388C19.6812 25.4388 19.8973 25.3508 20.0566 25.1941C20.216 25.0375 20.3055 24.825 20.3055 24.6034C20.3055 24.3819 20.216 24.1694 20.0566 24.0127C19.8973 23.8561 19.6812 23.7681 19.4558 23.7681C19.2305 23.7681 19.0143 23.8561 18.855 24.0127C18.6956 24.1694 18.6061 24.3819 18.6061 24.6034C18.6061 24.825 18.6956 25.0375 18.855 25.1941C19.0143 25.3508 19.2305 25.4388 19.4558 25.4388Z" fill="#F70A8D"/>
</g>
</svg>
