<svg width="36" height="36" viewBox="0 0 36 36" fill="none" xmlns="http://www.w3.org/2000/svg">
<path d="M19.8508 0.00221464C21.1642 -0.00282559 22.4777 0.0103754 23.7908 0.0418134L24.14 0.0544129C24.5432 0.0688125 24.941 0.0868118 25.4216 0.108411C27.3367 0.198408 28.6435 0.500798 29.79 0.945383C30.978 1.40257 31.9788 2.02175 32.9795 3.02251C33.8946 3.92177 34.6027 5.00955 35.0548 6.2102C35.4994 7.35676 35.8018 8.66532 35.8918 10.5805C35.9134 11.0592 35.9314 11.4588 35.9458 11.862L35.9566 12.2112C35.9886 13.5237 36.0024 14.8366 35.998 16.1495L35.9998 17.4922V19.8501C36.0043 21.1636 35.9905 22.4771 35.9584 23.7902L35.9476 24.1394C35.9332 24.5426 35.9152 24.9404 35.8936 25.4209C35.8036 27.3361 35.4976 28.6428 35.0548 29.7894C34.6042 30.9913 33.8959 32.08 32.9795 32.9789C32.0795 33.8938 30.9911 34.602 29.79 35.0542C28.6435 35.4988 27.3367 35.8012 25.4216 35.8912C24.941 35.9128 24.5432 35.9308 24.14 35.9452L23.7908 35.956C22.4777 35.988 21.1642 36.0018 19.8508 35.9974L18.508 35.9992H16.1519C14.8384 36.0036 13.5249 35.9898 12.2118 35.9578L11.8626 35.947C11.4353 35.9315 11.0082 35.9135 10.5811 35.893C8.66594 35.803 7.35919 35.497 6.21083 35.0542C5.0097 34.6031 3.92173 33.8947 3.02314 32.9789C2.10705 32.0794 1.39819 30.991 0.946007 29.7894C0.501422 28.6428 0.199032 27.3361 0.109035 25.4209C0.0889887 24.9939 0.0709892 24.5667 0.0550367 24.1394L0.0460372 23.7902C0.0128528 22.4771 -0.00214831 21.1636 0.00103857 19.8501V16.1495C-0.003985 14.8366 0.00921595 13.5237 0.0406374 12.2112L0.0532369 11.862C0.0676364 11.4588 0.0856357 11.0592 0.107235 10.5805C0.197232 8.66352 0.499621 7.35856 0.944206 6.2102C1.39666 5.00896 2.1069 3.92148 3.02494 3.02431C3.92292 2.1077 5.0102 1.3982 6.21083 0.945383C7.35919 0.500798 8.66414 0.198408 10.5811 0.108411L11.8626 0.0544129L12.2118 0.0454135C13.5243 0.0122457 14.8372 -0.00275544 16.1501 0.000414828L19.8508 0.00221464ZM18.0004 9.00191C16.808 8.98504 15.6241 9.20534 14.5175 9.65001C13.4109 10.0947 12.4038 10.7548 11.5546 11.5921C10.7054 12.4294 10.031 13.4271 9.57075 14.5273C9.11048 15.6275 8.87346 16.8081 8.87346 18.0007C8.87346 19.1933 9.11048 20.3739 9.57075 21.4741C10.031 22.5743 10.7054 23.572 11.5546 24.4093C12.4038 25.2466 13.4109 25.9067 14.5175 26.3514C15.6241 26.7961 16.808 27.0164 18.0004 26.9995C20.3873 26.9995 22.6764 26.0513 24.3642 24.3635C26.0519 22.6758 27.0001 20.3867 27.0001 17.9998C27.0001 15.6129 26.0519 13.3238 24.3642 11.6361C22.6764 9.94829 20.3873 9.00191 18.0004 9.00191ZM18.0004 12.6018C18.7177 12.5886 19.4304 12.7184 20.097 12.9837C20.7635 13.2491 21.3705 13.6446 21.8825 14.1471C22.3945 14.6497 22.8012 15.2492 23.0789 15.9107C23.3565 16.5722 23.4996 17.2824 23.4997 17.9998C23.4998 18.7172 23.357 19.4274 23.0795 20.089C22.8021 20.7506 22.3956 21.3503 21.8838 21.853C21.372 22.3557 20.7651 22.7514 20.0987 23.017C19.4322 23.2825 18.7195 23.4126 18.0022 23.3996C16.5701 23.3996 15.1966 22.8307 14.184 21.818C13.1713 20.8054 12.6024 19.4319 12.6024 17.9998C12.6024 16.5677 13.1713 15.1942 14.184 14.1816C15.1966 13.1689 16.5701 12.6 18.0022 12.6L18.0004 12.6018ZM27.4501 6.302C26.8694 6.32524 26.3203 6.57226 25.9176 6.99132C25.515 7.41039 25.2902 7.96899 25.2902 8.55012C25.2902 9.13126 25.515 9.68986 25.9176 10.1089C26.3203 10.528 26.8694 10.775 27.4501 10.7982C28.0468 10.7982 28.6191 10.5612 29.041 10.1393C29.463 9.71732 29.7 9.14504 29.7 8.54832C29.7 7.95161 29.463 7.37933 29.041 6.95739C28.6191 6.53545 28.0468 6.2984 27.4501 6.2984V6.302Z" fill="#FDFAFF"/>
</svg>
