<svg width="180" height="64" viewBox="0 0 180 64" fill="none" xmlns="http://www.w3.org/2000/svg">
<g clip-path="url(#clip0_1916_14157)">
<path d="M29.4939 37.53H27.6602V26.4742H29.4939V37.53ZM31.3275 24.634V26.4762H29.4939V24.634H31.3275ZM31.3275 37.53V39.3723H29.4939V37.53H31.3275ZM33.1617 22.7917V24.634H31.3275V22.7917H33.1617ZM33.1617 39.3723V41.2144H31.3275V39.3723H33.1617ZM34.9954 24.634V26.4762H33.1617V24.634H34.9954ZM34.9954 37.53V39.3723H33.1617V37.53H34.9954ZM36.8283 30.1606H34.9954V26.4762H36.8283V30.1606ZM36.8283 37.53H34.9954V33.8456H36.8283V37.53Z" fill="#FDFAFF"/>
<path d="M47.8273 24.634H42.3251V30.1619H47.8273V32.0048H44.1594V33.8471H42.3258V41.2158H40.4922V22.7932H47.8273V24.634ZM45.9937 33.8456V35.6879H44.1594V33.8456H45.9937ZM47.8273 35.6879V37.53H45.9937V35.6879H47.8273ZM49.6609 24.6319V26.4742H47.8273V24.6319H49.6609ZM49.6609 28.3163V30.1585H47.8273V28.3163H49.6609ZM49.6609 37.5279V39.3702H47.8273V37.5279H49.6609ZM51.4946 26.4721V28.3142H49.6609V26.4721H51.4946ZM51.4946 39.3681V41.2103H49.6609V39.3681H51.4946Z" fill="#FDFAFF"/>
<path d="M55.1618 28.3183H53.3281V22.7903H55.1618V28.3183ZM56.9954 32.0033H55.1618V28.3183H56.9954V32.0033ZM58.8297 41.2143H56.9954V32.0033H58.8297V41.2143ZM60.6634 32.0033H58.8297V28.3183H60.6634V32.0033ZM62.497 28.3183H60.6634V22.7903H62.497V28.3183Z" fill="#FDFAFF"/>
<path d="M73.4974 24.634H67.9951V30.1619H73.4974V32.0048H67.9951V41.2158H66.1602V22.7932H73.4953L73.4974 24.634ZM75.331 24.634V26.4762H73.4974V24.634H75.331ZM75.331 28.3184V30.1606H73.4974V28.3184H75.331ZM77.1646 26.4762V28.3184H75.331V26.4762H77.1646Z" fill="#FDFAFF"/>
<path d="M77.1641 22.7917H90.0001V24.634H84.4979V41.2144H82.6663V24.634H77.1641V22.7917Z" fill="#FDFAFF"/>
<path d="M93.665 37.53H91.832V26.4742H93.665V37.53ZM95.4986 24.634V26.4762H93.665V24.634H95.4986ZM95.4986 37.53V39.3723H93.665V37.53H95.4986ZM97.333 22.7917V24.634H95.4986V22.7917H97.333ZM97.333 39.3723V41.2144H95.4986V39.3723H97.333ZM99.1666 24.634V26.4762H97.333V24.634H99.1666ZM99.1666 37.53V39.3723H97.333V37.53H99.1666ZM101 37.53H99.1666V26.4742H101V37.53Z" fill="#FDFAFF"/>
<path d="M106.501 37.53H104.668V26.4742H106.501V37.53ZM108.335 24.634V26.4762H106.501V24.634H108.335ZM108.335 37.53V39.3723H106.501V37.53H108.335ZM110.169 22.7917V24.634H108.335V22.7917H110.169ZM110.169 39.3723V41.2144H108.335V39.3723H110.169ZM112.002 24.634V26.4762H110.169V24.634H112.002ZM112.002 37.53V39.3723H110.169V37.53H112.002ZM113.835 30.1606H112.002V26.4762H113.835V30.1606ZM113.835 37.53H112.002V33.8456H113.835V37.53Z" fill="#FDFAFF"/>
<path d="M119.338 41.2144H117.504V33.8456H119.338V41.2144ZM121.172 33.8456H119.338V26.4762H121.172V33.8456ZM123.005 26.4762H121.172V22.7917H123.005V26.4762ZM123.005 37.5321H121.172V33.8477H123.005V37.5321ZM124.838 33.8477H123.005V26.4783H124.838V33.8477ZM126.672 41.2165H124.838V33.8477H126.672V41.2165Z" fill="#FDFAFF"/>
<path d="M137.672 24.634H132.17V30.1619H137.672V32.0048H132.17V41.2158H130.336V22.7932H137.671L137.672 24.634ZM139.506 24.634V26.4762H137.672V24.634H139.506ZM139.506 28.3184V30.1606H137.672V28.3184H139.506ZM141.34 26.4762V28.3184H139.506V26.4762H141.34Z" fill="#FDFAFF"/>
<path d="M145.006 28.3184H143.172V24.634H145.006V28.3184ZM145.006 37.53H143.172V33.8456H145.006V37.53ZM145.006 24.634V22.7917H148.673V24.634H145.006ZM145.006 28.3184H146.838V30.1606H145.004L145.006 28.3184ZM146.839 37.53V39.3723H145.006V37.53H146.839ZM146.838 30.1606H148.673V32.0034H146.838V30.1606ZM146.839 41.2165V39.3744H150.507V41.2165H146.839ZM150.507 24.6361V26.4783H148.673V24.6361H150.507ZM148.673 32.0055H150.507V33.8477H148.673V32.0055ZM150.507 26.4783L152.34 26.4775V28.3198H150.507V26.4783ZM152.34 39.3736L150.507 39.3744V33.8456H152.34V39.3736Z" fill="#FDFAFF"/>
<path d="M177.259 24.9872V19.4785H174.457C174.457 18.6804 174.451 17.9231 174.457 17.1665C174.457 16.897 174.414 16.7284 174.086 16.7277C172.378 16.7277 170.671 16.707 168.963 16.6945L168.951 19.4648H163.426V16.6959L168.954 16.6828V13.9119H163.425L163.415 16.6822H155.115C155.115 15.7608 155.115 14.8376 155.115 13.9126C156.966 13.9126 158.817 13.9115 160.668 13.9092C161.583 13.9092 162.499 13.903 163.415 13.8995V11.1044H157.833C157.833 10.3042 157.822 9.56142 157.838 8.81929C157.844 8.49868 157.726 8.38187 157.406 8.38118C153.872 8.37428 150.338 8.36183 146.805 8.34386L146.794 11.1148C145.581 11.1196 144.369 11.13 143.157 11.1293C139.756 11.1265 136.355 11.1212 132.955 11.1133C132.946 10.3913 132.911 9.66783 132.936 8.94642C132.952 8.49451 132.814 8.35354 132.354 8.35493C129.013 8.36529 125.672 8.34458 122.33 8.33975C117.561 8.33329 112.793 8.33028 108.025 8.33074C108.015 7.63974 108.005 6.94874 107.999 6.25775C107.993 5.59163 107.995 5.59095 107.35 5.58956C104.007 5.58266 100.663 5.57597 97.3192 5.56952C95.3475 5.56492 93.3758 5.5571 91.4043 5.54604C91.3992 4.62241 91.3946 3.69877 91.3904 2.77515C91.2151 2.77998 91.0397 2.78759 90.8643 2.78759L69.8808 2.81178C69.2377 2.81178 69.2357 2.81176 69.2357 3.47512C69.2357 4.16611 69.2405 4.85711 69.2432 5.5481H90.6635C90.9063 5.5481 91.1484 5.55639 91.3912 5.56122V8.34042L108.011 8.3494C108.011 9.07287 108.027 9.79703 108.001 10.5191C107.986 10.9379 108.106 11.0954 108.555 11.0948C111.865 11.0857 115.175 11.1071 118.483 11.1127C123.304 11.1214 128.123 11.1281 132.944 11.1327C132.94 11.8715 132.957 12.6115 132.92 13.3487C132.897 13.8013 133.068 13.8898 133.488 13.8898C137.923 13.8863 142.361 13.9036 146.795 13.9154V16.6994H155.105V19.482H163.413V22.2654H168.952V25.0494H171.715V27.7995H174.485V30.5905H177.218V33.3994H174.542V36.2194C173.759 36.2194 173.039 36.2373 172.32 36.2124C171.918 36.1986 171.758 36.325 171.774 36.7466C171.802 37.4686 171.782 38.1935 171.782 38.9708H168.949V41.7286C167.279 41.7452 165.608 41.7708 163.937 41.7701C163.573 41.7701 163.443 41.8765 163.455 42.2504C163.479 42.9884 163.463 43.7277 163.463 44.5307H157.875V47.2946H149.564V50.0779H138.484V52.8613C138.292 52.8613 138.098 52.8661 137.905 52.8668C131.845 52.8829 125.785 52.8956 119.725 52.9048C119.243 52.9048 119.097 53.0534 119.114 53.5266C119.141 54.2315 119.103 54.9384 119.092 55.6453C118.833 55.6453 118.574 55.6543 118.315 55.6543H91.3919V58.4258C87.7072 58.4286 84.0229 58.4316 80.3392 58.4348C73.87 58.4375 67.4007 58.4394 60.9314 58.4404C60.9314 59.1804 60.9472 59.9205 60.919 60.6598C60.9032 61.082 61.0642 61.196 61.4652 61.1849C62.3042 61.1622 63.1447 61.1891 63.9844 61.1891C73.12 61.196 82.2556 61.2022 91.3912 61.2078L91.4077 58.4404C96.7265 58.4362 102.045 58.4319 107.364 58.4273C111.09 58.4238 114.816 58.4086 118.541 58.4217C119.007 58.4217 119.144 58.2752 119.124 57.8288C119.093 57.106 119.108 56.3777 119.103 55.6564C119.347 55.6564 119.589 55.6481 119.832 55.6474L137.82 55.6287C138.479 55.6287 138.478 55.6287 138.481 54.9452C138.485 54.2619 138.491 53.5633 138.497 52.8723H149.577V50.089H157.873V52.853H152.349V55.6425C154.963 55.6308 157.572 55.6128 160.184 55.6142C160.553 55.6142 160.623 55.4566 160.616 55.1354C160.601 54.3974 160.612 53.6586 160.612 52.8551H166.186V50.091C163.678 50.0975 161.168 50.1031 158.66 50.1077C158.402 50.1077 158.144 50.0883 157.886 50.0779V47.3084H166.185C166.19 48.2321 166.194 49.1557 166.198 50.0794H171.711V47.2883H174.497V44.5244L168.966 44.5078C168.966 43.5865 168.966 42.6635 168.966 41.739L173.838 41.7535H174.507V44.5133H177.291V41.6879H179.999V24.9844L177.259 24.9872ZM171.718 22.2481H168.967C168.967 21.3239 168.967 20.4006 168.967 19.4779H171.718V22.2481ZM155.101 13.8995H146.807C146.807 12.9781 146.807 12.0548 146.807 11.1293H155.105L155.101 13.8995ZM174.428 25.0335H171.734C171.734 24.1121 171.734 23.1897 171.734 22.266H174.425L174.428 25.0335ZM166.2 47.2981V44.5278H168.947V47.2981H166.2Z" fill="#FDFAFF"/>
<path d="M168.967 16.6937V16.6826H168.957V16.6937H168.967Z" fill="#FDFAFF"/>
<path d="M125.056 58.4487C124.705 58.4487 124.591 58.5744 124.601 58.9096C124.616 59.472 124.588 60.0359 124.609 60.5976C124.624 60.9797 124.487 61.1256 124.098 61.129C122.289 61.1477 120.48 61.214 118.67 61.2161C109.583 61.2281 100.495 61.2315 91.4062 61.2264V64.0001H92.0576C97.2517 64.0001 102.446 64.0001 107.639 64.0001C113.096 63.9918 118.554 63.9656 124.009 63.9621C124.448 63.9621 124.645 63.8585 124.607 63.381C124.571 62.9035 124.599 62.4212 124.599 61.941C124.599 61.2196 124.599 61.2209 125.34 61.2188C130.449 61.2036 135.56 61.1914 140.671 61.1822C141.113 61.1822 141.241 61.044 141.227 60.6136C141.205 59.8908 141.239 59.1665 141.25 58.4424C135.853 58.4466 130.454 58.4487 125.056 58.4487Z" fill="#FDFAFF"/>
<path d="M113.555 2.78068H113.565C113.566 2.77608 113.566 2.77146 113.565 2.76685L113.555 2.78068Z" fill="#FDFAFF"/>
<path d="M146.793 8.33276V8.34527H146.807V8.33276H146.793Z" fill="#FDFAFF"/>
<path d="M146.164 5.5804C142.869 5.57212 139.572 5.55344 136.276 5.56658C135.789 5.56658 135.644 5.41663 135.675 4.94467C135.71 4.40086 135.667 3.85152 135.688 3.30633C135.702 2.94424 135.582 2.80536 135.207 2.81228C134.367 2.82679 133.526 2.79708 132.686 2.79638C126.313 2.78947 119.939 2.78393 113.565 2.77979C113.56 3.50326 113.571 4.22744 113.537 4.94953C113.516 5.40283 113.669 5.54034 114.127 5.53964C118.709 5.53136 123.291 5.54656 127.874 5.55415C128.699 5.55415 129.524 5.54448 130.35 5.55415C131.962 5.57903 133.574 5.62324 135.186 5.6412C135.581 5.64535 135.704 5.80153 135.691 6.17882C135.669 6.7406 135.698 7.30514 135.68 7.86761C135.671 8.20204 135.776 8.32918 136.131 8.32849C139.686 8.31951 143.241 8.32849 146.796 8.32849V5.57626L146.164 5.5804Z" fill="#FDFAFF"/>
<path d="M60.918 58.4285V58.4423L60.9306 58.4285H60.918Z" fill="#FDFAFF"/>
<path d="M60.9292 56.3079C60.9511 55.8443 60.8232 55.6819 60.3294 55.6826C55.2055 55.6874 50.0815 55.666 44.9568 55.6529C44.2615 55.6529 44.2607 55.6529 44.2594 54.9508C44.2594 54.4209 44.2477 53.8908 44.2635 53.3615C44.2725 53.0464 44.1624 52.9165 43.8371 52.9158C39.3766 52.9075 34.9167 52.8944 30.457 52.8765C30.4639 53.6331 30.4894 54.3904 30.4701 55.147C30.4598 55.5223 30.5856 55.6252 30.9516 55.6231C32.4173 55.6128 33.8836 55.637 35.3492 55.6425C37.2275 55.6493 39.1066 55.6674 40.9842 55.6425C41.4753 55.6356 41.6129 55.7965 41.5819 56.2644C41.5462 56.8082 41.5901 57.3575 41.5681 57.9028C41.5537 58.2662 41.6775 58.4017 42.0496 58.3955C42.8887 58.3824 43.7292 58.4134 44.5689 58.414C50.0189 58.421 55.4686 58.426 60.9181 58.4293C60.9181 57.7217 60.8954 57.0135 60.9292 56.3079Z" fill="#FDFAFF"/>
<path d="M91.3906 61.2104V61.2256L91.4078 61.2255V61.2104H91.3906Z" fill="#FDFAFF"/>
<path d="M60.918 58.4423H60.9306V58.4285L60.918 58.4423Z" fill="#FDFAFF"/>
<path d="M113.563 2.76685H113.551C113.551 2.77146 113.551 2.77608 113.551 2.78068L113.563 2.76685Z" fill="#FDFAFF"/>
<path d="M113.544 0.646796C113.565 0.170009 113.407 0.0249001 112.93 0.0249001C105.944 0.0276642 98.9571 0.0193478 91.9702 0H91.4062V2.76398H113.553C113.55 2.05986 113.515 1.3523 113.544 0.646796Z" fill="#FDFAFF"/>
<path d="M91.4025 2.77789V2.76538H91.3867L91.3946 2.77197L91.4025 2.77789Z" fill="#FDFAFF"/>
<path d="M69.2412 5.56183V5.54932H69.2266L69.2339 5.55527L69.2412 5.56183Z" fill="#FDFAFF"/>
<path d="M91.3985 2.77197L91.3906 2.76538V2.77856H91.4065L91.3985 2.77197Z" fill="#FDFAFF"/>
<path d="M69.2297 7.83452C69.2166 7.07442 69.2297 6.31983 69.2297 5.5625C62.0177 5.57171 54.8053 5.57793 47.5928 5.58115C47.1802 5.58115 47.0467 5.70004 47.064 6.11118C47.0941 6.85055 47.079 7.59198 47.0825 8.33272C54.3124 8.31937 61.5424 8.30852 68.7724 8.30023C69.1203 8.30023 69.2352 8.17034 69.2297 7.83452Z" fill="#FDFAFF"/>
<path d="M69.2339 5.55527L69.2266 5.54932V5.56183H69.2412L69.2339 5.55527Z" fill="#FDFAFF"/>
<path d="M47.0803 8.33276H47.0664L47.0803 8.34527V8.33276Z" fill="#FDFAFF"/>
<path d="M24.9148 13.9119V13.8994H24.9023V13.9119H24.9148Z" fill="#FDFAFF"/>
<path d="M8.29565 22.2493H8.28516V22.2598H8.29565V22.2493Z" fill="#FDFAFF"/>
<path d="M13.7711 19.4715C14.0057 19.4715 14.1804 19.4715 14.3551 19.4715C15.853 19.457 17.3511 19.4321 18.849 19.4349C19.2115 19.4349 19.347 19.3285 19.3346 18.9512C19.3112 18.2249 19.3277 17.5001 19.3277 16.7069H24.9036V13.9097C22.2721 13.9214 19.64 13.9366 17.0085 13.9387C16.6798 13.9387 16.631 14.0977 16.6344 14.3698C16.6447 15.1259 16.6344 15.8818 16.6344 16.6612C16.4569 16.6716 16.3455 16.6827 16.2327 16.6834C14.7017 16.6986 13.1693 16.7297 11.6383 16.7158C11.1975 16.7123 11.0661 16.8437 11.0881 17.279C11.1218 17.9976 11.0977 18.7197 11.0977 19.4902H8.29297V22.25H13.7698L13.7711 19.4715Z" fill="#FDFAFF"/>
<path d="M166.188 50.0925H166.199V50.0813H166.188V50.0925Z" fill="#FDFAFF"/>
<path d="M47.0664 8.33276V8.34527H47.0803L47.0664 8.33276Z" fill="#FDFAFF"/>
<path d="M33.2241 11.1285V11.116H33.2109V11.1285H33.2241Z" fill="#FDFAFF"/>
<path d="M47.0723 10.6649C47.0572 9.8917 47.0662 9.11917 47.0654 8.34595C42.604 8.35701 38.1424 8.36575 33.6805 8.3722C33.3126 8.3722 33.2397 8.52006 33.2438 8.84482C33.2534 9.60146 33.2342 10.3588 33.2266 11.1162C37.6995 11.1065 42.1724 11.0986 46.6452 11.0926C46.9726 11.0926 47.0786 10.9834 47.0723 10.6649Z" fill="#FDFAFF"/>
<path d="M5.52626 38.9465H5.51172V38.9583H5.5256C5.5256 38.9544 5.52626 38.9504 5.52626 38.9465Z" fill="#FDFAFF"/>
<path d="M5.03828 33.4234C4.47912 33.4386 3.91788 33.4013 3.36078 33.4345C2.89928 33.4621 2.71221 33.3239 2.73628 32.8298C2.77342 32.0926 2.74384 31.3525 2.74246 30.6131C1.99003 30.6056 1.23761 30.6131 0.486558 30.5821C0.0842055 30.5648 -0.0058984 30.7251 0.000291625 31.1024C0.024364 32.5901 0.037425 34.0792 0.0106016 35.5668C0.00166047 36.0464 0.168787 36.1597 0.60759 36.1397C1.30637 36.1079 2.00723 36.1314 2.76379 36.1314V38.9479H5.51491C5.49978 37.2522 5.47983 35.5558 5.47433 33.8601C5.47226 33.5401 5.36154 33.4131 5.03828 33.4234Z" fill="#FDFAFF"/>
<path d="M174.496 44.5264H174.507V44.5159H174.496V44.5264Z" fill="#FDFAFF"/>
<path d="M141.254 58.4299V58.4417H141.267V58.4299H141.254Z" fill="#FDFAFF"/>
<path d="M141.268 58.4299C144.802 58.4174 148.336 58.4009 151.87 58.3995C152.234 58.3995 152.311 58.2503 152.309 57.9248C152.303 57.1695 152.327 56.4142 152.339 55.6597H141.266L141.268 58.4299Z" fill="#FDFAFF"/>
<path d="M152.34 55.6591H152.349V55.646H152.34V55.6591Z" fill="#FDFAFF"/>
<path d="M33.214 11.1292H24.918V13.8994H33.214V11.1292Z" fill="#FDFAFF"/>
<path d="M22.1445 50.093V52.8633H30.4419V50.093H22.1445Z" fill="#FDFAFF"/>
<path d="M30.4414 52.8633V52.8758H30.454V52.8633H30.4414Z" fill="#FDFAFF"/>
<path d="M5.51443 25.0437H2.75781V30.598H5.51443V25.0437Z" fill="#FDFAFF"/>
<path d="M2.75608 30.5979H2.74219C2.74219 30.6025 2.74219 30.6071 2.74219 30.6111H2.75543L2.75608 30.5979Z" fill="#FDFAFF"/>
<path d="M11.0664 44.5264V47.2973H16.5955V44.5264H11.0664Z" fill="#FDFAFF"/>
<path d="M16.607 47.2974H16.5938V47.3093H16.607V47.2974Z" fill="#FDFAFF"/>
<path d="M163.426 13.9112V13.8994H163.414V13.9112H163.426Z" fill="#FDFAFF"/>
<path d="M22.1374 50.095C22.1421 50.095 22.1459 50.0912 22.1459 50.0864C22.1459 50.0817 22.1421 50.0779 22.1374 50.0779C22.1327 50.0779 22.1289 50.0817 22.1289 50.0864C22.1289 50.0912 22.1327 50.095 22.1374 50.095Z" fill="#FDFAFF"/>
<path d="M16.6094 47.3125V50.0834H22.1343V47.3125H16.6094Z" fill="#FDFAFF"/>
<path d="M8.2997 41.7307H8.28516V41.7419H8.2997V41.7307Z" fill="#FDFAFF"/>
<path d="M5.5276 38.959C5.51315 39.7972 5.48909 40.6361 5.49803 41.4736C5.49803 41.5738 5.68168 41.7547 5.7821 41.7561C6.61569 41.7665 7.44995 41.7437 8.28354 41.7306L8.28355 38.959H5.5276Z" fill="#FDFAFF"/>
<path d="M8.30078 41.7424V44.5147H11.0519V41.7424H8.30078Z" fill="#FDFAFF"/>
<path d="M11.0547 44.5146V44.5258H11.0659V44.5146H11.0547Z" fill="#FDFAFF"/>
<path d="M5.52297 25.0327H5.51172L5.51173 25.0432H5.52297V25.0327Z" fill="#FDFAFF"/>
<path d="M8.28212 22.2603L5.52344 22.2604V25.0326H8.28212V22.2603Z" fill="#FDFAFF"/>
</g>
<defs>
<clipPath id="clip0_1916_14157">
<rect width="180" height="64" fill="white"/>
</clipPath>
</defs>
</svg>
