<svg width="124" height="124" viewBox="0 0 124 124" fill="none" xmlns="http://www.w3.org/2000/svg">
<path d="M92.7448 0.003154C96.7458 -0.00395184 100.713 0.751282 104.44 2.2297C108.213 3.71868 111.624 6.02109 114.438 8.97829C117.495 12.242 119.861 16.1081 121.39 20.3376C123.228 25.5253 124.109 31.0124 123.989 36.5244C124.046 43.1238 122.939 49.6803 120.721 55.8835C118.553 61.8373 115.674 67.4985 112.149 72.7402C108.585 78.0173 104.568 82.9627 100.144 87.5182C95.6831 92.1158 91.1577 96.5097 86.5677 100.7C81.9776 104.89 77.588 108.904 73.3988 112.739C69.4832 116.229 65.812 119.991 62.4119 124H61.5003C58.111 120.001 54.4598 116.239 50.5716 112.739C46.3436 108.904 41.9507 104.894 37.393 100.71C32.8353 96.5262 28.31 92.1322 23.8169 87.528C19.3931 82.9749 15.3786 78.0292 11.8214 72.7501C8.30248 67.5058 5.4331 61.8409 3.27818 55.8835C1.06051 49.6803 -0.0462652 43.1238 0.0102094 36.5244C-0.106469 31.0118 0.777817 25.5246 2.61876 20.3376C4.14455 16.1088 6.50762 12.2427 9.56198 8.97829C12.3781 6.01991 15.7925 3.71742 19.5695 2.2297C23.2973 0.753972 27.2636 -0.00116516 31.2644 0.003154C34.8048 -0.0420604 38.3298 0.483333 41.7083 1.55976C44.6851 2.53481 47.5048 3.94889 50.077 5.7567C52.5135 7.48395 54.7201 9.52377 56.642 11.8255C58.4447 13.9829 60.0666 16.2897 61.4906 18.7219H62.4022C63.8334 16.2799 65.4755 13.9721 67.309 11.8255C69.2494 9.53116 71.4646 7.4924 73.9031 5.7567C76.4776 3.94692 79.3008 2.53273 82.2815 1.55976C85.6657 0.479469 89.1978 -0.0459908 92.7448 0.003154Z" fill="#FF7A00"/>
<path d="M51.5 67C57.299 67 62 59.165 62 49.5C62 39.835 57.299 32 51.5 32C45.701 32 41 39.835 41 49.5C41 59.165 45.701 67 51.5 67Z" fill="#F1FFFF"/>
<path d="M54.5 60C58.0899 60 61 55.299 61 49.5C61 43.701 58.0899 39 54.5 39C50.9102 39 48 43.701 48 49.5C48 55.299 50.9102 60 54.5 60Z" fill="#2C191F"/>
<path d="M53 46C54.1046 46 55 44.8807 55 43.5C55 42.1193 54.1046 41 53 41C51.8954 41 51 42.1193 51 43.5C51 44.8807 51.8954 46 53 46Z" fill="#F1FFFF"/>
<path d="M73.5 67C79.299 67 84 59.165 84 49.5C84 39.835 79.299 32 73.5 32C67.701 32 63 39.835 63 49.5C63 59.165 67.701 67 73.5 67Z" fill="#F1FFFF"/>
<path d="M76.5 60C80.0899 60 83 55.299 83 49.5C83 43.701 80.0899 39 76.5 39C72.9101 39 70 43.701 70 49.5C70 55.299 72.9101 60 76.5 60Z" fill="#2C191F"/>
<path d="M75 46C76.1046 46 77 44.8807 77 43.5C77 42.1193 76.1046 41 75 41C73.8954 41 73 42.1193 73 43.5C73 44.8807 73.8954 46 75 46Z" fill="#F1FFFF"/>
<path d="M93 79C96.866 79 100 75.866 100 72C100 68.134 96.866 65 93 65C89.134 65 86 68.134 86 72C86 75.866 89.134 79 93 79Z" fill="#EAAA52"/>
<path d="M31 79C34.866 79 38 75.866 38 72C38 68.134 34.866 65 31 65C27.134 65 24 68.134 24 72C24 75.866 27.134 79 31 79Z" fill="#EAAA52"/>
</svg>
