<svg width="124" height="124" viewBox="0 0 124 124" fill="none" xmlns="http://www.w3.org/2000/svg">
<circle cx="61" cy="61" r="59.5" stroke="url(#paint0_linear_1393_9192)" stroke-width="3"/>
<path d="M32.936 66.52C37.32 66.76 40.288 66.88 41.84 66.88C42.208 66.88 42.496 66.776 42.704 66.568C42.928 66.344 43.04 66.048 43.04 65.68V63.52H37.52C35.84 63.52 34.616 63.144 33.848 62.392C33.096 61.624 32.72 60.4 32.72 58.72V58C32.72 56.32 33.096 55.104 33.848 54.352C34.616 53.584 35.84 53.2 37.52 53.2H45.944V56.56H38.48C37.52 56.56 37.04 57.04 37.04 58V58.48C37.04 59.44 37.52 59.92 38.48 59.92H42.8C44.368 59.92 45.52 60.288 46.256 61.024C46.992 61.76 47.36 62.912 47.36 64.48V65.68C47.36 67.248 46.992 68.4 46.256 69.136C45.52 69.872 44.368 70.24 42.8 70.24C41.984 70.24 41.12 70.224 40.208 70.192L38 70.096C36.368 70.016 34.68 69.904 32.936 69.76V66.52ZM53.8381 70H49.5181V53.2H53.8381V59.8H55.9981L59.7421 53.2H64.3021L59.5981 61.48L64.2781 70H59.7181L55.9981 63.16H53.8381V70ZM73.6569 70H65.0169V66.64H67.1769V56.56H65.0169V53.2H73.6569V56.56H71.4969V66.64H73.6569V70ZM75.815 53.2H85.895C87.575 53.2 88.791 53.584 89.543 54.352C90.311 55.104 90.695 56.32 90.695 58V60.4C90.695 62.08 90.311 63.304 89.543 64.072C88.791 64.824 87.575 65.2 85.895 65.2H80.135V70H75.815V53.2ZM86.375 58C86.375 57.04 85.895 56.56 84.935 56.56H80.135V61.84H84.935C85.895 61.84 86.375 61.36 86.375 60.4V58Z" fill="url(#paint1_linear_1393_9192)"/>
<defs>
<linearGradient id="paint0_linear_1393_9192" x1="25.01" y1="-9.15" x2="165.31" y2="156.77" gradientUnits="userSpaceOnUse">
<stop stop-color="#AAF97E"/>
<stop offset="1" stop-color="#9AEC6C"/>
</linearGradient>
<linearGradient id="paint1_linear_1393_9192" x1="44.3" y1="43.6" x2="72.2712" y2="105.623" gradientUnits="userSpaceOnUse">
<stop stop-color="#AAF97E"/>
<stop offset="1" stop-color="#9AEC6C"/>
</linearGradient>
</defs>
</svg>
