<svg width="72" height="59" viewBox="0 0 72 59" fill="none" xmlns="http://www.w3.org/2000/svg">
<rect x="0.5" y="0.5" width="71" height="58" stroke="#787C7F"/>
<path d="M29.5 36.5H26.25C24.4551 36.5 23 35.0449 23 33.25V20.25C23 18.4551 24.4551 17 26.25 17H39.25C41.0449 17 42.5 18.4551 42.5 20.25V23.5M32.75 43H45.75C47.5449 43 49 41.5449 49 39.75V26.75C49 24.9551 47.5449 23.5 45.75 23.5H32.75C30.9551 23.5 29.5 24.9551 29.5 26.75V39.75C29.5 41.5449 30.9551 43 32.75 43Z" stroke="#282828" stroke-width="2.67" stroke-linecap="round" stroke-linejoin="round"/>
</svg>
