<svg width="156" height="156" viewBox="0 0 156 156" fill="none" xmlns="http://www.w3.org/2000/svg">
<path d="M150.888 110.491L112.617 105.652C111.908 105.562 111.188 105.64 110.516 105.882C109.843 106.123 109.237 106.519 108.747 107.039C108.257 107.559 107.896 108.188 107.695 108.874C107.495 109.56 107.459 110.283 107.59 110.986L114.654 148.909C114.837 149.909 114.679 150.942 114.206 151.842C113.733 152.742 112.972 153.458 112.045 153.874C111.117 154.29 110.077 154.383 109.09 154.139C108.103 153.894 107.227 153.325 106.602 152.523L82.928 122.053C82.4911 121.486 81.9262 121.03 81.2794 120.724C80.6327 120.417 79.9225 120.268 79.207 120.289C78.4915 120.309 77.7911 120.499 77.1631 120.843C76.5351 121.186 75.9974 121.673 75.594 122.265L53.7569 154.054C53.1777 154.885 52.3374 155.499 51.3696 155.798C50.4017 156.097 49.3618 156.063 48.415 155.704C47.4681 155.344 46.6686 154.678 46.1435 153.812C45.6183 152.945 45.3976 151.928 45.5164 150.922L50.3547 112.646C50.4424 111.937 50.3619 111.218 50.1199 110.547C49.8779 109.875 49.4812 109.27 48.9619 108.781C48.4426 108.291 47.8153 107.931 47.1308 107.729C46.4463 107.527 45.7239 107.489 45.022 107.618L7.03359 114.635C6.03748 114.804 5.01357 114.635 4.12447 114.155C3.23538 113.675 2.53208 112.912 2.12629 111.987C1.72049 111.061 1.63547 110.027 1.88471 109.048C2.13395 108.069 2.70318 107.201 3.50198 106.582L33.9445 82.9403C34.5115 82.5034 34.9669 81.9384 35.2736 81.2915C35.5802 80.6446 35.7293 79.9343 35.7086 79.2188C35.6879 78.5032 35.4981 77.8027 35.1546 77.1746C34.8112 76.5465 34.3239 76.0087 33.7326 75.6052L1.94807 53.7649C1.1155 53.1853 0.500791 52.3437 0.201829 51.3742C-0.097133 50.4047 -0.0631514 49.3631 0.298362 48.4152C0.659875 47.4672 1.32813 46.6675 2.1967 46.1435C3.06526 45.6194 4.08419 45.401 5.0912 45.5232L43.3504 50.3622C44.0595 50.4519 44.7799 50.3729 45.4528 50.1318C46.1257 49.8907 46.7323 49.4942 47.2232 48.9745C47.7141 48.4549 48.0755 47.8267 48.278 47.1411C48.4806 46.4555 48.5185 45.7317 48.3888 45.0287L41.3609 7.03464C41.1922 6.03838 41.3612 5.01431 41.841 4.12509C42.3208 3.23586 43.0839 2.53246 44.0091 2.1266C44.9343 1.72075 45.9686 1.63571 46.9476 1.88499C47.9267 2.13427 48.7944 2.70358 49.413 3.5025L73.0513 33.9495C73.4881 34.5166 74.0531 34.9721 74.6999 35.2788C75.3466 35.5855 76.0568 35.7346 76.7723 35.7139C77.4878 35.6932 78.1882 35.5034 78.8162 35.1599C79.4441 34.8163 79.9818 34.329 80.3853 33.7376L102.222 1.94835C102.802 1.11567 103.643 0.500866 104.613 0.201859C105.582 -0.0971475 106.624 -0.0631607 107.571 0.298406C108.519 0.659973 109.319 1.32833 109.843 2.19702C110.367 3.06572 110.585 4.0848 110.463 5.09196L105.625 43.3568C105.535 44.0661 105.614 44.7865 105.855 45.4595C106.096 46.1326 106.492 46.7392 107.012 47.2302C107.532 47.7212 108.16 48.0827 108.845 48.2852C109.531 48.4878 110.254 48.5257 110.957 48.396L148.875 41.3317C149.885 41.1285 150.935 41.2748 151.851 41.7466C152.767 42.2183 153.496 42.9875 153.917 43.928C154.339 44.8685 154.428 45.9243 154.171 46.9223C153.914 47.9203 153.325 48.8011 152.501 49.4203L122.035 73.0621C121.468 73.4991 121.012 74.0641 120.706 74.7109C120.399 75.3578 120.25 76.0681 120.271 76.7837C120.291 77.4993 120.481 78.1998 120.825 78.8279C121.168 79.4559 121.655 79.9937 122.247 80.3972L154.031 102.238C154.87 102.815 155.491 103.657 155.794 104.629C156.097 105.602 156.065 106.648 155.702 107.6C155.34 108.551 154.668 109.354 153.795 109.878C152.922 110.402 151.898 110.618 150.888 110.491Z" fill="#FF7A00"/>
<path d="M62.0497 80.9836L64.0607 72.9839L67.3008 73.8107L63.7256 88.0447H60.3961L58.6308 81.0283L56.8656 88.0447H53.5361L49.9608 73.8107L53.2009 72.9839L55.212 80.9836L57.1114 73.4308H60.1503L62.0497 80.9836ZM75.0243 72.6935C79.3146 72.6935 82.7781 76.1793 82.7781 80.4473C82.7781 84.7152 79.3146 88.2011 75.0243 88.2011C70.7563 88.2011 67.2928 84.7152 67.2928 80.4473C67.2928 76.1793 70.7563 72.6935 75.0243 72.6935ZM75.0243 84.8717C77.3482 84.8717 79.2475 82.7712 79.2475 80.4473C79.2475 78.1234 77.3482 76.0229 75.0243 76.0229C72.7227 76.0229 70.8233 78.1234 70.8233 80.4473C70.8233 82.7712 72.7227 84.8717 75.0243 84.8717ZM95.3058 80.9836L97.3169 72.9839L100.557 73.8107L96.9817 88.0447H93.6522L91.887 81.0283L90.1217 88.0447H86.7922L83.217 73.8107L86.457 72.9839L88.4681 80.9836L90.3675 73.4308H93.4064L95.3058 80.9836ZM105.117 82.95H102.19L101.765 73.4308H105.519L105.117 82.95ZM105.318 88.0223H101.989V84.7599H105.318V88.0223Z" fill="white"/>
</svg>
