<svg width="32" height="32" viewBox="0 0 32 32" fill="none" xmlns="http://www.w3.org/2000/svg">
<path d="M32 15.92C32 23.61 20.2328 30 17 30C13.7672 30 2 23.61 2 15.92C2 8.23 8.71336 2 17 2C25.2866 2 32 8.23 32 15.92Z" fill="#86D72F"/>
<path d="M14.368 24.2241C14.4698 24.1415 14.5869 24.0796 14.7127 24.042C14.8385 24.0044 14.9705 23.9919 15.1011 24.0051C15.2318 24.0183 15.3585 24.0571 15.4742 24.1191C15.5898 24.1811 15.692 24.2652 15.775 24.3666C16.151 24.8257 16.6 25.009 17 25.009C17.4 25.009 17.85 24.8257 18.225 24.3666C18.3926 24.1618 18.635 24.0318 18.8989 24.0051C19.1627 23.9784 19.4264 24.0572 19.632 24.2241C19.8375 24.3911 19.9681 24.6325 19.9949 24.8953C20.0217 25.1581 19.9426 25.4208 19.775 25.6255C19.051 26.511 18.049 27 17 27C15.95 27 14.95 26.511 14.225 25.6255C14.142 25.5241 14.0799 25.4075 14.0422 25.2822C14.0044 25.1569 13.9918 25.0255 14.0051 24.8953C14.0184 24.7652 14.0573 24.6389 14.1196 24.5238C14.1818 24.4086 14.2663 24.3068 14.368 24.2241Z" fill="#212121"/>
<path d="M6.68006 19.5268C9.1219 21.7798 11.6634 23.0758 14.0955 20.8328C16.5363 18.5909 16.5146 14.9279 14.0847 12.686C11.6537 10.443 7.69514 10.433 5.26414 12.686C2.83421 14.9389 4.2393 17.2739 6.68006 19.5258V19.5268ZM27.3187 19.5268C24.8758 21.7798 22.3332 23.0758 19.9011 20.8328C17.4701 18.5909 17.4809 14.9279 19.9119 12.686C22.344 10.443 26.3036 10.433 28.7346 12.686C31.1667 14.9389 29.7606 17.2739 27.3187 19.5258V19.5268Z" fill="#533566"/>
<path d="M13.4163 15.5752C14.0675 14.893 13.9181 13.6404 13.0853 12.7681C12.2525 11.9069 11.0568 11.7392 10.4055 12.4214C9.75428 13.1036 9.90375 14.3562 10.7365 15.2285C11.5693 16.1008 12.765 16.2574 13.4163 15.5752ZM27.5945 15.5752C28.2457 14.893 28.0962 13.6404 27.2635 12.7681C26.4414 11.9069 25.235 11.7392 24.5837 12.4214C23.9325 13.1036 24.0819 14.3562 24.9147 15.2285C25.7475 16.1008 26.9432 16.2574 27.5945 15.5752Z" fill="white"/>
</svg>
