<svg width="1920" height="2180" viewBox="0 0 1920 2180" fill="none" xmlns="http://www.w3.org/2000/svg">
<g opacity="0.2" filter="url(#filter0_f_1646_14322)">
<path d="M1446.9 947.992C1559.63 988.489 1678.86 1024.23 1786.73 960.635C1877.21 907.29 1901.8 834.235 1863.18 765.712C1831.39 709.314 1861.73 673.041 1814.83 622.685C1733.84 535.715 1808.67 466.141 1700.81 394.69C1609.63 334.29 1480.77 323.586 1360.02 375.74C1216.41 437.768 1205.11 546.905 1211.8 655.35C1219.8 785.086 1285.22 889.917 1446.9 947.992Z" fill="#0AF7FA"/>
</g>
<g opacity="0.4" filter="url(#filter1_f_1646_14322)">
<path d="M2438.75 1017.99C2432.11 777.514 2411.04 529.807 2201.93 395.154C2026.54 282.21 1791.16 401.491 1685.18 534.835C1597.95 644.585 1661.82 737.187 1598.2 868.468C1488.32 1095.2 1205.43 816.834 1147 1077.41C1097.61 1297.68 1175.7 1539.37 1372.06 1707.85C1605.6 1908.22 1830.51 1826.77 2040.18 1713.61C2291.02 1578.23 2448.28 1362.85 2438.75 1017.99Z" fill="url(#paint0_linear_1646_14322)"/>
</g>
<g filter="url(#filter2_f_1646_14322)">
<ellipse cx="134.5" cy="978.27" rx="576.232" ry="450.932" transform="rotate(-44.1857 134.5 978.27)" fill="#9AEC6C" fill-opacity="0.3"/>
</g>
<defs>
<filter id="filter0_f_1646_14322" x="990.355" y="122.279" width="1110.45" height="1093.05" filterUnits="userSpaceOnUse" color-interpolation-filters="sRGB">
<feFlood flood-opacity="0" result="BackgroundImageFix"/>
<feBlend mode="normal" in="SourceGraphic" in2="BackgroundImageFix" result="shape"/>
<feGaussianBlur stdDeviation="110" result="effect1_foregroundBlur_1646_14322"/>
</filter>
<filter id="filter1_f_1646_14322" x="782.582" y="0.110901" width="2006.58" height="2179.85" filterUnits="userSpaceOnUse" color-interpolation-filters="sRGB">
<feFlood flood-opacity="0" result="BackgroundImageFix"/>
<feBlend mode="normal" in="SourceGraphic" in2="BackgroundImageFix" result="shape"/>
<feGaussianBlur stdDeviation="175" result="effect1_foregroundBlur_1646_14322"/>
</filter>
<filter id="filter2_f_1646_14322" x="-684.68" y="162.633" width="1638.36" height="1631.27" filterUnits="userSpaceOnUse" color-interpolation-filters="sRGB">
<feFlood flood-opacity="0" result="BackgroundImageFix"/>
<feBlend mode="normal" in="SourceGraphic" in2="BackgroundImageFix" result="shape"/>
<feGaussianBlur stdDeviation="150" result="effect1_foregroundBlur_1646_14322"/>
</filter>
<linearGradient id="paint0_linear_1646_14322" x1="2169.2" y1="1633.93" x2="1511.87" y2="617.536" gradientUnits="userSpaceOnUse">
<stop stop-color="#8A2DE7"/>
<stop offset="1" stop-color="#5659FE"/>
</linearGradient>
</defs>
</svg>
