<svg width="32" height="32" viewBox="0 0 32 32" fill="none" xmlns="http://www.w3.org/2000/svg">
<path d="M7.69482 10.5511L3.63114 0.388083C3.52519 0.121867 3.84908 -0.111214 4.09109 0.0567417L13.6031 6.69043C13.7319 6.78183 13.9162 6.75898 14.0161 6.63787L17.5837 2.38299C17.6211 2.33863 17.6716 2.30587 17.7288 2.28889C17.7859 2.27191 17.8471 2.2715 17.9045 2.28769C17.9619 2.30388 18.0129 2.33595 18.051 2.37979C18.0891 2.42363 18.1125 2.47725 18.1183 2.5338L18.6192 7.66731C18.6231 7.70818 18.6364 7.74775 18.6579 7.78334C18.6794 7.81893 18.7088 7.8497 18.744 7.87355C18.7792 7.89741 18.8194 7.91378 18.8618 7.92157C18.9043 7.92936 18.948 7.92837 18.99 7.91867L28.5863 5.7044C28.649 5.69036 28.7147 5.69572 28.7738 5.71972C28.833 5.74371 28.8825 5.78506 28.9151 5.83771C28.9477 5.89036 28.9617 5.95154 28.9549 6.01226C28.9482 6.07299 28.9211 6.13007 28.8777 6.17513L22.9453 12.3107C22.9154 12.3418 22.8932 12.3789 22.8801 12.4192C22.8671 12.4595 22.8636 12.502 22.8699 12.5437C22.8763 12.5854 22.8923 12.6253 22.9167 12.6605C22.9412 12.6956 22.9736 12.7252 23.0116 12.7471L31.8541 17.8384C31.9083 17.8693 31.9509 17.9156 31.9757 17.9708C32.0006 18.026 32.0065 18.0872 31.9927 18.1457C31.9788 18.2043 31.9459 18.2572 31.8985 18.297C31.8512 18.3368 31.7918 18.3614 31.7289 18.3674L21.4282 19.3854C21.3836 19.3896 21.3406 19.4033 21.3022 19.4254C21.2639 19.4475 21.2313 19.4774 21.2067 19.513C21.1821 19.5486 21.1662 19.5889 21.1602 19.6311C21.1541 19.6733 21.1581 19.7162 21.1718 19.7567L22.855 24.768C22.8747 24.8259 22.8743 24.8883 22.8539 24.946C22.8336 25.0037 22.7944 25.0537 22.7419 25.0888C22.6895 25.1239 22.6267 25.1422 22.5625 25.141C22.4984 25.1398 22.4364 25.1192 22.3855 25.0822L17.7595 21.7596C17.7228 21.7332 17.6802 21.7152 17.635 21.7069C17.5898 21.6986 17.5432 21.7003 17.4987 21.7117C17.4543 21.7232 17.4133 21.7442 17.3787 21.7731C17.3442 21.802 17.3171 21.838 17.2995 21.8784L13.0011 31.8221C12.9768 31.8787 12.9341 31.9264 12.8791 31.9582C12.8242 31.99 12.76 32.0043 12.6958 31.9989C12.6317 31.9935 12.5711 31.9688 12.5229 31.9283C12.4747 31.8879 12.4414 31.8338 12.4279 31.7741L9.68632 19.6504C9.67809 19.613 9.66203 19.5776 9.63909 19.5462C9.61615 19.5147 9.5868 19.488 9.55278 19.4676C9.51876 19.4471 9.48077 19.4333 9.44104 19.4271C9.40131 19.4208 9.36066 19.4222 9.32149 19.4311L0.371772 21.4683C0.0767794 21.5345 -0.125501 21.1906 0.090024 20.9872L6.28487 15.1579C6.32039 15.1245 6.34658 15.0832 6.36107 15.0378C6.37555 14.9924 6.37788 14.9442 6.36784 14.8977C6.3578 14.8512 6.33571 14.8078 6.30357 14.7715C6.27142 14.7351 6.23024 14.7069 6.18373 14.6895L1.40365 12.8934C1.34439 12.871 1.29413 12.8315 1.26012 12.7803C1.2261 12.7291 1.21008 12.669 1.21437 12.6087C1.21865 12.5483 1.24302 12.4908 1.28396 12.4444C1.3249 12.3981 1.3803 12.3652 1.44217 12.3507L7.48652 10.9293C7.52786 10.9195 7.56655 10.9015 7.60002 10.8765C7.63349 10.8515 7.66097 10.82 7.68066 10.7841C7.70035 10.7483 7.7118 10.7089 7.71424 10.6685C7.71668 10.6281 7.71006 10.5877 7.69482 10.55V10.5511Z" fill="#F8312F"/>
<path d="M11.1719 15.3022L9.73617 16.7074C9.69173 16.7511 9.66272 16.8072 9.65333 16.8678C9.64394 16.9285 9.65464 16.9904 9.6839 17.0447C9.71315 17.0991 9.75946 17.143 9.81615 17.1703C9.87284 17.1975 9.93699 17.2066 9.99938 17.1963L12.4592 16.7712C12.4981 16.7645 12.538 16.7654 12.5766 16.7738C12.6151 16.7821 12.6516 16.7978 12.6838 16.8199C12.7161 16.842 12.7435 16.87 12.7645 16.9024C12.7855 16.9348 12.7997 16.9709 12.8062 17.0087L13.6317 21.7493C13.6868 22.0552 14.1258 22.0922 14.2323 21.7991L15.7829 17.5532C15.7991 17.5092 15.826 17.4696 15.8613 17.4378C15.8967 17.406 15.9395 17.383 15.986 17.3707C16.0326 17.3585 16.0815 17.3572 16.1286 17.3672C16.1757 17.3772 16.2197 17.3981 16.2567 17.428L17.5297 18.4568C17.5733 18.492 17.6265 18.5145 17.6828 18.5215C17.7392 18.5286 17.7965 18.5199 17.848 18.4966C17.8994 18.4732 17.943 18.4362 17.9735 18.3897C18.004 18.3433 18.0202 18.2894 18.0202 18.2344V16.5128C18.0202 16.4729 18.0288 16.4333 18.0454 16.3967C18.062 16.3601 18.0862 16.3272 18.1165 16.3001C18.1469 16.273 18.1827 16.2523 18.2217 16.2393C18.2607 16.2262 18.3021 16.2212 18.3432 16.2243L23.7415 16.653C24.0143 16.675 24.104 16.3054 23.8492 16.207L18.2116 14.0139C18.1704 13.998 18.1333 13.9733 18.1031 13.9418C18.0729 13.9102 18.0503 13.8726 18.037 13.8315C18.0237 13.7905 18.0201 13.7471 18.0262 13.7045C18.0324 13.6619 18.0484 13.6211 18.0729 13.5853L19.1365 12.0328C19.1672 11.9885 19.1846 11.9368 19.1869 11.8834C19.1891 11.8301 19.1761 11.7771 19.1492 11.7305C19.1223 11.6839 19.0827 11.6453 19.0346 11.6192C18.9866 11.593 18.932 11.5802 18.8768 11.5822L17.1121 11.6366C17.0348 11.6389 16.9595 11.612 16.9022 11.5617C16.8448 11.5114 16.8099 11.4415 16.8046 11.3667L16.5929 8.27114C16.5725 7.98151 16.1753 7.89694 16.0318 8.15066L14.5996 10.6866C14.5788 10.7235 14.55 10.7554 14.5151 10.7804C14.4803 10.8053 14.4402 10.8226 14.3978 10.8311C14.3553 10.8396 14.3115 10.8391 14.2693 10.8295C14.2271 10.82 14.1875 10.8017 14.1534 10.7759L11.343 8.64998C11.293 8.61249 11.232 8.5913 11.1689 8.58944C11.1057 8.58758 11.0435 8.60516 10.9913 8.63965C10.939 8.67414 10.8994 8.72376 10.8782 8.7814C10.8569 8.83904 10.855 8.90172 10.8728 8.96046L11.9412 12.4082C11.9535 12.4477 11.957 12.4892 11.9513 12.5301C11.9457 12.571 11.9312 12.6102 11.9086 12.6452C11.8861 12.6802 11.8561 12.7101 11.8206 12.733C11.7852 12.7559 11.7451 12.7711 11.7031 12.7778L9.25042 13.1728C9.19001 13.1825 9.13412 13.2098 9.09028 13.2512C9.04645 13.2926 9.01679 13.346 9.00531 13.4043C8.99382 13.4625 9.00108 13.5228 9.02608 13.5769C9.05109 13.631 9.09265 13.6764 9.14514 13.7069L11.1133 14.8504C11.1521 14.8729 11.1851 14.9038 11.2098 14.9405C11.2345 14.9773 11.2503 15.019 11.2559 15.0625C11.2616 15.106 11.2569 15.1502 11.2424 15.1917C11.2278 15.2332 11.2037 15.271 11.1719 15.3022Z" fill="#FCD53F"/>
</svg>
