<svg width="70" height="59" viewBox="0 0 70 59" fill="none" xmlns="http://www.w3.org/2000/svg">
<path d="M0.5 0.5H56C64.5604 0.5 71.5 7.43959 71.5 16V58.5H0.5V0.5Z" fill="#CC3E34"/>
<path d="M0.5 0.5H56C64.5604 0.5 71.5 7.43959 71.5 16V58.5H0.5V0.5Z" stroke="#787C7F"/>
<path fill-rule="evenodd" clip-rule="evenodd" d="M23.6346 17.6346C24.4807 16.7885 25.8526 16.7885 26.6987 17.6346L36 26.9359L45.3013 17.6346C46.1474 16.7885 47.5193 16.7885 48.3654 17.6346C49.2115 18.4807 49.2115 19.8526 48.3654 20.6987L39.0641 30L48.3654 39.3013C49.2115 40.1474 49.2115 41.5193 48.3654 42.3654C47.5193 43.2115 46.1474 43.2115 45.3013 42.3654L36 33.0641L26.6987 42.3654C25.8526 43.2115 24.4807 43.2115 23.6346 42.3654C22.7885 41.5193 22.7885 40.1474 23.6346 39.3013L32.9359 30L23.6346 20.6987C22.7885 19.8526 22.7885 18.4807 23.6346 17.6346Z" fill="#FDFAFF"/>
</svg>
