<svg width="36" height="36" viewBox="0 0 36 36" fill="none" xmlns="http://www.w3.org/2000/svg">
<circle cx="18" cy="18" r="17.375" fill="#FDFAFF" stroke="#FDFAFF" stroke-width="1.25"/>
<path d="M26.307 9.66212C24.787 8.88733 23.1412 8.32497 21.4269 8.00006C21.4119 7.99953 21.3969 8.00262 21.3831 8.00909C21.3693 8.01557 21.3569 8.02528 21.3469 8.03755C21.1412 8.44994 20.9012 8.9873 20.7412 9.39969C18.9228 9.09977 17.0736 9.09977 15.2553 9.39969C15.0953 8.9748 14.8553 8.44994 14.6381 8.03755C14.6267 8.01255 14.5924 8.00006 14.5581 8.00006C12.8438 8.32497 11.2095 8.88733 9.678 9.66212C9.66657 9.66212 9.65515 9.67462 9.64372 9.68712C6.53506 14.7733 5.67789 19.722 6.10076 24.6207C6.10076 24.6457 6.11219 24.6707 6.13505 24.6832C8.19225 26.3328 10.1694 27.3325 12.1238 27.9948C12.1581 28.0073 12.1924 27.9948 12.2038 27.9698C12.6609 27.2825 13.0724 26.5577 13.4267 25.7954C13.4495 25.7454 13.4267 25.6954 13.381 25.6829C12.7295 25.408 12.1124 25.0831 11.5066 24.7082C11.4609 24.6832 11.4609 24.6082 11.4952 24.5707C11.6209 24.4707 11.7466 24.3583 11.8723 24.2583C11.8952 24.2333 11.9295 24.2333 11.9524 24.2458C15.8839 26.2078 20.124 26.2078 24.0098 24.2458C24.0327 24.2333 24.067 24.2333 24.0898 24.2583C24.2155 24.3708 24.3413 24.4707 24.467 24.5832C24.5127 24.6207 24.5127 24.6957 24.4556 24.7207C23.8612 25.1081 23.2327 25.4205 22.5812 25.6954C22.5355 25.7079 22.5241 25.7704 22.5355 25.8079C22.9012 26.5702 23.3127 27.295 23.7584 27.9823C23.7927 27.9948 23.827 28.0073 23.8612 27.9948C25.827 27.3325 27.8042 26.3328 29.8614 24.6832C29.8843 24.6707 29.8957 24.6457 29.8957 24.6207C30.3986 18.9597 29.0614 14.0485 26.3527 9.68712C26.3413 9.67462 26.3299 9.66212 26.307 9.66212ZM14.021 21.634C12.8438 21.634 11.8609 20.4468 11.8609 18.9847C11.8609 17.5226 12.8209 16.3354 14.021 16.3354C15.2324 16.3354 16.1925 17.5351 16.181 18.9847C16.181 20.4468 15.221 21.634 14.021 21.634ZM21.9869 21.634C20.8097 21.634 19.8269 20.4468 19.8269 18.9847C19.8269 17.5226 20.7869 16.3354 21.9869 16.3354C23.1984 16.3354 24.1584 17.5351 24.147 18.9847C24.147 20.4468 23.1984 21.634 21.9869 21.634Z" fill="#0E0E0E"/>
</svg>
