<svg width="22" height="22" viewBox="0 0 22 22" fill="none" xmlns="http://www.w3.org/2000/svg">
<path d="M11.0013 1.83325C10.0288 1.83325 9.09621 2.21956 8.40858 2.90719C7.72094 3.59483 7.33464 4.52746 7.33464 5.49992C7.33464 6.47238 7.72094 7.40501 8.40858 8.09264C9.09621 8.78028 10.0288 9.16658 11.0013 9.16658C11.9738 9.16658 12.9064 8.78028 13.594 8.09264C14.2817 7.40501 14.668 6.47238 14.668 5.49992C14.668 4.52746 14.2817 3.59483 13.594 2.90719C12.9064 2.21956 11.9738 1.83325 11.0013 1.83325ZM15.5846 10.9999H6.41797C5.68862 10.9999 4.98915 11.2896 4.47343 11.8054C3.9577 12.3211 3.66797 13.0206 3.66797 13.7499C3.66797 15.7959 4.50947 17.4349 5.88997 18.5441C7.24847 19.6349 9.0708 20.1666 11.0013 20.1666C12.9318 20.1666 14.7541 19.6349 16.1126 18.5441C17.4913 17.4349 18.3346 15.7959 18.3346 13.7499C18.3346 13.0206 18.0449 12.3211 17.5292 11.8054C17.0135 11.2896 16.314 10.9999 15.5846 10.9999Z" fill="url(#paint0_linear_2469_61128)"/>
<defs>
<linearGradient id="paint0_linear_2469_61128" x1="6.67464" y1="0.458252" x2="28.0224" y2="20.6551" gradientUnits="userSpaceOnUse">
<stop stop-color="#AAF97E"/>
<stop offset="1" stop-color="#9AEC6C"/>
</linearGradient>
</defs>
</svg>
