<svg width="282" height="229" viewBox="0 0 282 229" fill="none" xmlns="http://www.w3.org/2000/svg">
<path d="M80.0475 179.545C76.5935 179.863 40.4723 182.683 19.3964 156.079C4.50389 137.243 6.22699 115.292 6.7858 108.105C10.3999 58.9657 60.9401 31.2692 68.537 27.0714C91.164 14.6032 111.39 12.281 135.052 9.58453C156.4 7.14864 181.758 4.58947 211.417 14.3823C229.263 20.295 251.448 27.6578 264.379 49.8203C266.623 53.6424 278.351 74.66 271.587 99.6282C266.596 117.85 254.395 128.341 245.239 135.911C216.964 159.405 178.307 161.236 172.621 161.522C159.655 161.971 146.811 164.171 134.434 168.063C121.668 172.141 117.541 175.589 115.682 179.871C111.947 188.593 118.333 199.105 120.466 203.207C126.788 214.958 136.353 218.333 135.499 219.967C134.303 222.297 114.684 217.961 98.8642 204.568C90.8657 197.689 84.4459 189.152 80.0475 179.545Z" fill="url(#paint0_linear_1910_20978)"/>
<path d="M88.7809 110.592L83.9805 89.8325L92.7079 88.1237L101.502 126.155L92.716 127.875L75.9349 109.582L80.7084 130.226L71.9224 131.946L63.1283 93.915L71.8558 92.2063L88.7809 110.592ZM106.861 125.288L98.0666 87.257L119.856 82.9909L121.873 91.7136L108.87 94.2595L110.281 100.365L120.883 98.2896L122.82 106.663L112.218 108.739L113.643 114.903L126.646 112.357L128.65 121.022L106.861 125.288ZM160.234 95.6305L160.691 73.7802L169.682 74.269L168.876 113.146L160.148 114.855L151.299 97.5013L150.894 116.667L142.166 118.375L124.229 83.168L132.225 79.3536L142.31 99.1396L142.744 78.5098L150.71 76.9501L160.234 95.6305ZM190.746 83.6997C200.26 83.5389 205.923 87.1106 207.537 94.0887C208.841 99.7294 205.045 106.612 196.317 108.321C189.464 109.662 183.886 106.986 182.643 106.378L186.919 98.1254C188.364 98.815 190.497 100.89 194.421 100.121C197.643 99.4905 198.447 97.1448 198.282 95.9006C198.211 95.0636 197.668 92.9816 191.438 93.0465C191.321 93.0694 191.146 93.1038 191.073 93.0571C181.384 93.2523 175.663 89.6921 174.062 82.7721C172.745 77.0733 176.6 70.1794 185.268 68.4821C192.414 67.083 198.249 70.074 199.145 70.5065C199.374 70.7047 200.198 71.0904 200.198 71.0904L195.909 79.2849C195.909 79.2849 195 78.7944 194.725 78.6658C192.974 77.9754 191.196 76.3783 187.272 77.1466C184.05 77.7774 183.093 79.7275 183.317 80.9602C183.532 81.8906 183.976 83.8096 190.323 83.7218C190.44 83.6989 190.629 83.7226 190.746 83.6997ZM218.939 89.4858L211.266 90.9881L204.425 66.4336L214.265 64.507L218.939 89.4858ZM222.518 102.583L213.791 104.292L211.828 95.8015L220.555 94.0928L222.518 102.583Z" fill="white"/>
<defs>
<linearGradient id="paint0_linear_1910_20978" x1="54.039" y1="-1.78883" x2="302.004" y2="325.18" gradientUnits="userSpaceOnUse">
<stop stop-color="#AAF97E"/>
<stop offset="1" stop-color="#9AEC6C"/>
</linearGradient>
</defs>
</svg>
