<svg width="24" height="24" viewBox="0 0 24 24" fill="none" xmlns="http://www.w3.org/2000/svg">
<path d="M12.5699 21C16.0587 21 19.2027 19.24 20.8993 16.3907C20.9559 16.2957 20.9219 16.1733 20.8256 16.119L13.8355 12.1742C13.6999 12.0976 13.6999 11.9023 13.8355 11.8258L20.8256 7.88103C20.9219 7.82669 20.9559 7.70428 20.8993 7.60928C19.2027 4.75996 16.0587 3 12.5699 3C7.29305 3 3 7.0374 3 12C3 16.9626 7.29305 21 12.5699 21ZM12.0914 6.6C12.4722 6.60012 12.8374 6.74251 13.1066 6.99586C13.3758 7.2492 13.527 7.59274 13.5269 7.9509C13.5267 8.30906 13.3753 8.65251 13.106 8.90568C12.8366 9.15885 12.4713 9.30102 12.0904 9.3009C11.7096 9.30078 11.3444 9.15839 11.0752 8.90504C10.806 8.6517 10.6548 8.30816 10.655 7.95C10.6551 7.59184 10.8065 7.24839 11.0759 6.99522C11.3453 6.74205 11.7106 6.59988 12.0914 6.6Z" fill="url(#paint0_linear_2434_31811)"/>
<defs>
<linearGradient id="paint0_linear_2434_31811" x1="12" y1="3" x2="12" y2="21" gradientUnits="userSpaceOnUse">
<stop stop-color="#8A2DE7"/>
<stop offset="1" stop-color="#5659FE"/>
</linearGradient>
</defs>
</svg>
