<svg width="72" height="72" viewBox="0 0 72 72" fill="none" xmlns="http://www.w3.org/2000/svg">
<path d="M71 0V72H73V0H71ZM1 72V0H-1V72H1Z" fill="#171717" mask="url(#path-1-inside-1_1910_20958)"/>
<path d="M29.5 42.5H26.25C24.4551 42.5 23 41.0449 23 39.25V26.25C23 24.4551 24.4551 23 26.25 23H39.25C41.0449 23 42.5 24.4551 42.5 26.25V29.5M32.75 49H45.75C47.5449 49 49 47.5449 49 45.75V32.75C49 30.9551 47.5449 29.5 45.75 29.5H32.75C30.9551 29.5 29.5 30.9551 29.5 32.75V45.75C29.5 47.5449 30.9551 49 32.75 49Z" stroke="#FDFAFF" stroke-width="2.67" stroke-linecap="round" stroke-linejoin="round"/>
</svg>
