<svg width="25" height="24" viewBox="0 0 25 24" fill="none" xmlns="http://www.w3.org/2000/svg">
<path d="M11.4 1.5H13.6C15.6746 1.5 16.7108 1.5 17.3554 2.09781C17.9912 2.68643 18 3.63007 18 5.5C16.3487 4.54979 14.4434 4.0476 12.5 4.05037C10.5568 4.04751 8.65153 4.54932 7 5.49898C7 3.63007 7.0088 2.68643 7.6446 2.09781C8.2892 1.5 9.3254 1.5 11.4 1.5Z" fill="url(#paint0_linear_2469_61114)"/>
<path fill-rule="evenodd" clip-rule="evenodd" d="M12.5 22.5C14.7543 22.5 16.9163 21.6045 18.5104 20.0104C20.1045 18.4163 21 16.2543 21 14C21 11.7457 20.1045 9.58365 18.5104 7.98959C16.9163 6.39553 14.7543 5.5 12.5 5.5C10.2457 5.5 8.08365 6.39553 6.48959 7.98959C4.89553 9.58365 4 11.7457 4 14C4 16.2543 4.89553 18.4163 6.48959 20.0104C8.08365 21.6045 10.2457 22.5 12.5 22.5ZM12.5 10.8125C12.1982 10.8125 11.9964 11.1737 11.5926 11.8994L11.4885 12.0864C11.3738 12.2926 11.3164 12.3946 11.2271 12.4626C11.1368 12.5306 11.0253 12.5561 10.8021 12.606L10.6002 12.6528C9.81612 12.8302 9.42406 12.9184 9.33056 13.218C9.23706 13.5187 9.50481 13.8311 10.0392 14.4558L10.1774 14.6173C10.3293 14.7948 10.4058 14.8829 10.4398 14.9934C10.4738 15.1039 10.4621 15.2219 10.4398 15.4588L10.4186 15.6745C10.3378 16.5086 10.2974 16.9261 10.5408 17.111C10.7851 17.2959 11.1528 17.1269 11.8869 16.7891L12.0761 16.7019C12.2854 16.6063 12.3895 16.5574 12.5 16.5574C12.6105 16.5574 12.7146 16.6063 12.9239 16.7019L13.1131 16.7891C13.8472 17.128 14.2149 17.2959 14.4592 17.111C14.7036 16.9261 14.6622 16.5086 14.5814 15.6745L14.5602 15.4588C14.5379 15.2219 14.5262 15.1039 14.5602 14.9934C14.5942 14.884 14.6707 14.7948 14.8226 14.6173L14.9607 14.4558C15.4952 13.8311 15.7629 13.5187 15.6694 13.218C15.5759 12.9184 15.1839 12.8302 14.3997 12.6528L14.1979 12.606C13.9747 12.5561 13.8632 12.5316 13.7729 12.4626C13.6836 12.3946 13.6262 12.2926 13.5115 12.0864L13.4074 11.8994C13.0036 11.1737 12.8018 10.8125 12.5 10.8125Z" fill="url(#paint1_linear_2469_61114)"/>
<defs>
<linearGradient id="paint0_linear_2469_61114" x1="9.255" y1="1.2" x2="11.876" y2="9.7238" gradientUnits="userSpaceOnUse">
<stop stop-color="#AAF97E"/>
<stop offset="1" stop-color="#9AEC6C"/>
</linearGradient>
<linearGradient id="paint1_linear_2469_61114" x1="7.485" y1="4.225" x2="27.035" y2="27.345" gradientUnits="userSpaceOnUse">
<stop stop-color="#AAF97E"/>
<stop offset="1" stop-color="#9AEC6C"/>
</linearGradient>
</defs>
</svg>
